# xmcd
# Copyright (C) 1995-1998 Ti Kan
#
# Track frame offsets:
#       150
#       18911
#       36584
#       61943
#       78911
#       100301
#       117340
#       144466
#       162296
#       180050
#       200174
#       231601
#       249598
#       289451
#       312769
#       328021
#       343467
#
# Disc length: 4827 seconds
#
# Revision: 0
# Processed by: cddbd v1.5.2PL0 Copyright (c) Steve Scherf et al.
# Submitted via: CD-Transfer v1.0
#
DISCID=fe12d911
DTITLE=Americana 01 - 
DYEAR=1900
DGENRE=
TTITLE0=Bonnie ''prince ''billy - Horses
TTITLE1=Calexico - Epic
TTITLE2=Cracker - Big Dipper
TTITLE3=Crooked Fingers - You Can Never Leave
TTITLE4=Dave Alvin - King Of California
TTITLE5=Dillard and Clark - Train Leaves Here This Morning
TTITLE6=Gene Clark - Lady Of The North
TTITLE7=Giant Sand - Shiver
TTITLE8=Gillian Welch - The Way It Goes
TTITLE9=Guy Clark Desperados Waiting For The Train
TTITLE10=Joe Ely - Gallo Del Cielo
TTITLE11=Josh Rouse - It's The Nighttime
TTITLE12=Mike James Kirkland - Hang On In There
TTITLE13=New Riders Of The Purple Sage - The Last Lonely Eagle
TTITLE14=Old 97's - Oppenheimer
TTITLE15=Patty Griffin - Moses
TTITLE16=Pernice Brothers - Red Desert
EXTD=
EXTT0=
EXTT1=
EXTT2=
EXTT3=
EXTT4=
EXTT5=
EXTT6=
EXTT7=
EXTT8=
EXTT9=
EXTT10=
EXTT11=
EXTT12=
EXTT13=
EXTT14=
EXTT15=
EXTT16=
PLAYORDER=
